<svg t="1645007044072" class="icon" viewBox="0 0 1024 1024" version="1.1" xmlns="http://www.w3.org/2000/svg" p-id="23003" width="200" height="200"><path d="M167.506 1023.922c-42.902 0-85.808-16.334-118.472-48.994-65.326-65.328-65.326-171.622 0-236.946l403.3-403.3c12.76-12.754 33.438-12.754 46.202 0 12.756 12.756 12.756 33.442 0 46.202l-403.3 403.3c-39.852 39.852-39.852 104.696 0 144.546 39.852 39.854 104.692 39.848 144.544 0L928.69 239.82c39.852-39.852 39.852-104.696 0-144.546-39.854-39.858-104.696-39.852-144.544 0l-103.762 103.762c-12.76 12.754-33.438 12.754-46.202 0-12.756-12.756-12.756-33.442 0-46.202l103.762-103.762c65.328-65.318 171.616-65.322 236.944 0 65.326 65.326 65.326 171.618 0 236.946L285.976 974.928c-32.664 32.66-75.566 48.994-118.47 48.994z" fill="#2D527C" p-id="23004"></path><path d="M951.788 951.828c-52.672 52.672-138.072 52.672-190.746 0L72.132 262.918c-52.672-52.672-52.672-138.072 0-190.746 52.672-52.672 138.072-52.672 190.746 0l688.91 688.91c52.674 52.674 52.674 138.072 0 190.746z" fill="#CEE8FA" p-id="23005"></path><path d="M856.416 1024c-44.754 0-86.826-17.428-118.474-49.07L49.034 286.02c-65.326-65.328-65.326-171.618 0-236.946C80.682 17.428 122.754 0 167.506 0c44.754 0 86.826 17.428 118.476 49.07L974.89 737.98c31.644 31.648 49.07 73.72 49.07 118.476 0 44.754-17.428 86.826-49.07 118.476-31.648 31.64-73.72 49.068-118.474 49.068zM167.506 65.334c-27.296 0-52.966 10.63-72.27 29.936-39.852 39.852-39.852 104.696 0 144.546l688.91 688.91c19.304 19.306 44.974 29.936 72.274 29.936 27.296 0 52.966-10.63 72.27-29.936 19.306-19.304 29.936-44.974 29.936-72.274 0-27.3-10.63-52.97-29.936-72.274L239.778 95.272c-19.302-19.308-44.972-29.938-72.272-29.938z" fill="#2D527C" p-id="23006"></path></svg>