<svg t="1644647535262" class="icon" viewBox="0 0 1024 1024" version="1.1" xmlns="http://www.w3.org/2000/svg" p-id="3423" width="200" height="200"><path d="M231.338667 77.653333h585.984c43.178667 0 77.909333 55.381333 77.909333 124.16l-38.997333 483.84c0 27.904-122.368-38.656-152.746667 6.485334-44.544 66.218667-5.546667 242.944-31.146667 242.944l-441.002666 13.568c-43.178667 0-77.909333-55.381333-77.909334-124.16V201.813333c0-68.778667 34.730667-124.16 77.909334-124.16z m0 0" fill="#3A78E8" p-id="3424"></path><path d="M306.773333 325.546667c-16.554667 0-30.037333-13.056-30.549333-30.037334v-0.512c0-17.066667 13.482667-30.549333 30.549333-30.549333h427.264c16.554667 0 30.037333 13.056 30.549334 30.037333v0.512c0 17.066667-13.482667 30.549333-30.549334 30.549334H306.773333z m0 213.333333c-16.554667 1.536-31.573333-11.008-33.024-27.562667-1.536-16.554667 11.008-31.573333 27.562667-33.024h432.725333c16.554667 1.536 29.013333 16.042667 27.562667 33.024a31.0528 31.0528 0 0 1-27.562667 27.562667H306.773333z m0 213.845333c-16.554667 1.536-31.573333-11.008-33.024-27.562666-1.536-16.554667 11.008-31.573333 27.562667-33.024h127.744c16.554667 1.536 29.013333 16.042667 27.562667 33.024a31.0528 31.0528 0 0 1-27.562667 27.562666H306.773333z m0 0" fill="#BDE0FF" p-id="3425"></path><path d="M802.645333 785.834667c12.544-11.008 32.085333-9.472 43.093334 2.986666 11.008 12.544 9.472 32.085333-2.986667 43.093334L696.405333 959.146667c-5.546667 5.034667-12.544 7.509333-20.053333 7.509333H218.624c-52.565333-0.512-94.634667-43.605333-94.122667-96.170667v-722.773333c-0.512-52.565333 41.557333-95.658667 94.122667-96.170667h604.501333c52.565333 0.512 94.634667 43.605333 94.122667 96.170667v537.941333c0 16.554667-13.056 30.037333-30.037333 30.549334h-0.512c-17.066667 0-30.549333-13.482667-30.549334-30.549334V147.712c0.512-19.029333-14.506667-34.56-33.024-35.072h-605.013333c-19.029333 0.512-33.536 16.554667-33.024 35.072v722.773333a34.116267 34.116267 0 0 0 33.024 35.072h446.293333l138.24-119.722666z m0 0" fill="#3A78E8" p-id="3426"></path><path d="M700.330667 932.352a30.446933 30.446933 0 0 1-33.024 27.562667 31.0528 31.0528 0 0 1-27.562667-27.562667V755.029333c-0.512-52.565333 41.557333-95.658667 94.122667-96.170666h150.272c16.554667-1.536 31.573333 11.008 33.024 27.562666 1.536 16.554667-11.008 31.573333-27.562667 33.024H733.866667c-19.029333 0.512-33.536 16.554667-33.024 35.072l-0.512 177.834667z m0 0" fill="#3A78E8" p-id="3427"></path></svg>