<svg t="1644647647174" class="icon" viewBox="0 0 1024 1024" version="1.1" xmlns="http://www.w3.org/2000/svg" p-id="6629" width="200" height="200"><path d="M0 0m125.582536 0l772.834928 0q125.582536 0 125.582536 125.582536l0 772.834928q0 125.582536-125.582536 125.582536l-772.834928 0q-125.582536 0-125.582536-125.582536l0-772.834928q0-125.582536 125.582536-125.582536Z" fill="#52B790" p-id="6630"></path><path d="M180.462104 119.052244m32.14913 0l582.451803 0q32.149129 0 32.149129 32.14913l0 711.173902q0 32.149129-32.149129 32.149129l-582.451803 0q-32.149129 0-32.14913-32.149129l0-711.173902q0-32.149129 32.14913-32.14913Z" fill="#FFFFFF" p-id="6631"></path><path d="M244.13245 184.983076h519.660535v386.166299H244.13245z" fill="#CFE1C7" p-id="6632"></path><path d="M334.426294 361.928869h357.910228v209.346088h-357.910228z" fill="#F7C866" p-id="6633"></path><path d="M368.207996 282.309541h290.346824a15.8234 15.8234 0 0 1 15.948982 15.948982v63.670346H351.631101v-63.670346a15.948982 15.948982 0 0 1 16.576895-15.948982z" fill="#E87D46" p-id="6634"></path><path d="M426.85504 426.478293m-19.590875 0a19.590876 19.590876 0 1 0 39.181751 0 19.590876 19.590876 0 1 0-39.181751 0Z" fill="#F2A82B" p-id="6635"></path><path d="M610.456708 426.478293m-19.590875 0a19.590876 19.590876 0 1 0 39.181751 0 19.590876 19.590876 0 1 0-39.181751 0Z" fill="#F2A82B" p-id="6636"></path><path d="M606.06132 430.245769a87.907775 87.907775 0 0 1-174.936473 0h-8.539613a95.945058 95.945058 0 1 0 192.015698 0z" fill="#FFFFFF" p-id="6637"></path><path d="M606.06132 430.245769a87.907775 87.907775 0 0 1-174.936473 0h-8.539613a95.945058 95.945058 0 1 0 192.015698 0z" fill="#F3AD35" p-id="6638"></path><path d="M606.06132 426.980623a87.907775 87.907775 0 0 1-174.936473 0h-8.539613a95.945058 95.945058 0 1 0 192.015698 0z" fill="#FFFFFF" p-id="6639"></path><path d="M606.06132 426.980623a87.907775 87.907775 0 0 1-174.936473 0h-8.539613a95.945058 95.945058 0 1 0 192.015698 0z" fill="#FFFFFF" p-id="6640"></path><path d="M245.262693 621.382389h161.750307v15.697817H245.262693zM245.262693 686.30856h517.274467v15.697817H245.262693zM245.262693 751.234731h517.274467v15.697817H245.262693zM245.262693 816.03532h517.274467v15.697817H245.262693zM439.162129 621.382389h65.554084v15.697817h-65.554084z" fill="#E1E1E1" p-id="6641"></path><path d="M800.839833 477.213637L425.096885 835.751778l218.639195 187.369144s194.401766 0.753495 263.723326 0.753495c65.930831 0 116.791759-65.428501 116.791759-125.582536V702.006377z" opacity=".2" p-id="6642"></path><path d="M462.2598 718.274077m17.04965-17.04965l255.655957-255.655957q17.04965-17.04965 34.099301 0l59.052175 59.052175q17.04965 17.04965 0 34.099301l-255.655957 255.655957q-17.04965 17.04965-34.099301 0l-59.052175-59.052175q-17.04965-17.04965 0-34.099301Z" fill="#E95B5B" p-id="6643"></path><path d="M479.248075 701.202649L734.984351 445.441256a24.111847 24.111847 0 0 1 34.108217 0l31.78494 31.78494-272.790385 272.802943a24.111847 24.111847 0 0 1-33.744028-0.175815l-14.831297-14.831298a24.111847 24.111847 0 0 1 0-34.108217z" fill="#FF6666" p-id="6644"></path><path d="M475.204317 706.652931l-29.511896 67.940152 45.08413 49.479519 73.716949-24.488594-89.289183-92.931077z" fill="#FFE19A" p-id="6645"></path><path d="M495.297523 822.565612l-70.200638 13.186166 23.609517-67.312239 46.591121 54.126073z" p-id="6646"></path></svg>