<svg t="1645079308700" class="icon" viewBox="0 0 1075 1024" version="1.1" xmlns="http://www.w3.org/2000/svg" p-id="15558" width="200" height="200"><path d="M822.125714 354.742857l-362.788571-256c2.925714-12.434286 2.925714-25.6 0-38.034286-10.971429-42.422857-54.125714-68.754286-96.548572-57.782857-42.422857 10.971429-68.754286 54.125714-57.782857 96.548572 3.657143 13.165714 10.24 25.6 19.748572 35.84L126.537143 529.554286c-4.388571 8.777143-0.731429 19.748571 8.045714 24.868571 2.925714 1.462857 5.12 2.194286 8.045714 2.194286 6.582857 0 13.165714-3.657143 16.091429-10.24l204.8-406.674286c4.388571-8.045714 1.462857-18.285714-5.851429-23.405714-8.777143-5.851429-14.628571-14.628571-17.554285-24.868572-5.851429-23.405714 8.045714-46.811429 31.451428-52.662857 23.405714-5.851429 46.811429 8.045714 51.931429 31.451429 2.194286 9.508571 1.462857 19.748571-2.925714 28.525714-3.657143 8.045714-1.462857 17.554286 5.851428 22.674286l374.491429 264.045714c8.045714 5.851429 19.748571 3.657143 25.6-4.388571 5.851429-8.777143 3.657143-20.48-4.388572-26.331429z" fill="#3973F4" p-id="15559"></path><path d="M380.511086 76.565943m-21.287814 5.321462a21.942857 21.942857 0 1 0 42.575627-10.642925 21.942857 21.942857 0 1 0-42.575627 10.642925Z" fill="#3973F4" p-id="15560"></path><path d="M1017.417143 810.422857L174.08 1021.074286c-36.571429 8.777143-73.142857-13.165714-82.651429-49.737143L5.12 626.102857c-8.777143-36.571429 13.165714-73.142857 49.737143-82.651428l843.337143-210.651429c36.571429-8.777143 73.142857 13.165714 82.651428 49.737143l86.308572 345.234286c8.777143 36.571429-13.165714 73.142857-49.737143 82.651428z" fill="#4988FD" p-id="15561"></path><path d="M236.251429 796.525714c21.211429-5.12 29.988571-24.137143 29.988571-24.137143l24.868571 16.822858s-10.971429 28.525714-47.542857 37.302857c-39.497143 8.777143-76.8-14.628571-84.845714-49.737143-8.045714-35.84 15.36-73.142857 54.125714-81.92 35.84-8.045714 58.514286 13.165714 58.514286 13.165714l-15.36 26.331429s-15.36-13.165714-35.84-8.777143c-20.48 4.388571-32.182857 23.405714-27.794286 43.885714 4.388571 20.48 23.405714 32.182857 43.885715 27.062857zM321.097143 799.451429L292.571429 674.377143l33.645714-8.045714 21.942857 94.354285 55.588571-12.434285 7.314286 29.988571zM491.52 758.491429c-39.497143 8.777143-76.8-14.628571-84.845714-49.737143-8.045714-35.84 15.36-73.142857 54.125714-81.92 39.497143-8.777143 76.8 14.628571 84.845714 49.737143 8.777143 35.84-14.628571 73.142857-54.125714 81.92z m-6.582857-29.988572c19.748571-4.388571 31.451429-23.405714 26.331428-43.885714-4.388571-20.48-23.405714-32.182857-43.154285-27.794286-19.748571 4.388571-31.451429 23.405714-26.331429 43.885714 4.388571 20.48 23.405714 32.182857 43.154286 27.794286zM554.422857 645.851429c-4.388571-19.748571 10.24-42.422857 38.765714-49.005715 29.988571-7.314286 47.542857 8.045714 47.542858 8.045715l-14.628572 24.868571s-10.24-8.045714-22.674286-5.12c-8.045714 2.194286-12.434286 8.777143-10.971428 13.897143 3.657143 16.822857 59.977143-5.12 69.485714 38.765714 5.12 21.942857-9.508571 45.348571-40.228571 52.662857-32.914286 7.314286-54.857143-10.24-54.857143-10.24l14.628571-24.868571s13.897143 10.971429 29.988572 7.314286c9.508571-2.194286 14.628571-10.24 13.165714-16.822858-4.388571-18.285714-59.977143 3.657143-70.217143-39.497142zM789.211429 650.971429l6.582857 28.525714L697.782857 702.171429l-28.525714-125.074286 96.548571-21.942857 6.582857 28.525714-62.171428 14.628571 4.388571 19.748572 48.274286-10.971429 5.851429 27.062857-48.274286 10.971429 5.12 21.211429zM844.068571 531.017143c38.034286-8.777143 72.411429 12.434286 80.457143 47.542857 8.045714 35.108571-13.165714 68.754286-51.931428 77.531429l-48.274286 10.971428-28.525714-125.074286 48.274285-10.971428z m-7.314285 33.645714l14.628571 64.365714 13.897143-2.925714c16.822857-3.657143 29.257143-20.48 24.868571-39.497143-4.388571-19.017143-20.48-29.257143-39.497142-24.868571l-13.897143 2.925714z" fill="#FFFFFF" p-id="15562"></path></svg>