<svg t="1644648470426" class="icon" viewBox="0 0 1034 1024" version="1.1" xmlns="http://www.w3.org/2000/svg" p-id="15612" width="200" height="200"><path d="M346.352941 346.352941m-346.352941 0a346.352941 346.352941 0 1 0 692.705882 0 346.352941 346.352941 0 1 0-692.705882 0Z" fill="#8CF6FB" p-id="15613"></path><path d="M421.647059 843.294118C188.235294 843.294118 0 655.058824 0 421.647059S188.235294 0 421.647059 0s421.647059 188.235294 421.647059 421.647059-188.235294 421.647059-421.647059 421.647059z m0-768C230.4 75.294118 75.294118 230.4 75.294118 421.647059s155.105882 346.352941 346.352941 346.352941 346.352941-155.105882 346.352941-346.352941S612.894118 75.294118 421.647059 75.294118z" fill="#3C2DCB" p-id="15614"></path><path d="M1022.494118 1011.952941c-15.058824 15.058824-39.152941 15.058824-52.705883 0L757.458824 799.623529c-15.058824-15.058824-13.552941-39.152941 1.505882-52.705882 15.058824-13.552941 37.647059-13.552941 52.705882 0L1024 959.247059c13.552941 13.552941 13.552941 37.647059-1.505882 52.705882z" fill="#D098FF" p-id="15615"></path></svg>