<svg t="1645079045590" class="icon" viewBox="0 0 1067 1024" version="1.1" xmlns="http://www.w3.org/2000/svg" p-id="9700" width="200" height="200"><path d="M820.662857 354.742857l-362.788571-256c2.925714-12.434286 2.925714-25.6 0-38.034286-10.971429-42.422857-54.125714-68.754286-96.548572-57.782857-42.422857 10.971429-68.754286 54.125714-57.782857 96.548572 3.657143 13.165714 10.24 25.6 19.748572 35.84L125.074286 529.554286c-4.388571 8.777143-0.731429 19.748571 8.045714 24.868571 2.925714 1.462857 5.12 2.194286 8.045714 2.194286 6.582857 0 13.165714-3.657143 16.091429-10.24l204.8-406.674286c4.388571-8.045714 1.462857-18.285714-5.851429-23.405714-8.777143-5.851429-14.628571-14.628571-17.554285-24.868572-5.851429-23.405714 8.045714-46.811429 31.451428-52.662857 23.405714-5.851429 46.811429 8.045714 51.931429 31.451429 2.194286 9.508571 1.462857 19.748571-2.925715 28.525714-3.657143 8.045714-1.462857 17.554286 5.851429 22.674286l374.491429 264.045714c8.045714 5.851429 19.748571 3.657143 25.6-4.388571 5.851429-8.777143 3.657143-20.48-4.388572-26.331429z" fill="#63e12b" p-id="9701" data-spm-anchor-id="a313x.7781069.0.i22" class="selected"></path><path d="M378.397257 76.653714m-21.287814 5.321463a21.942857 21.942857 0 1 0 42.575628-10.642925 21.942857 21.942857 0 1 0-42.575628 10.642925Z" fill="#63e12b" p-id="9702" data-spm-anchor-id="a313x.7781069.0.i23" class="selected"></path><path d="M1015.954286 810.422857L172.617143 1021.074286c-36.571429 8.777143-73.142857-13.165714-82.651429-49.737143L3.657143 626.102857c-8.777143-36.571429 13.165714-73.142857 49.737143-82.651428l843.337143-210.651429c36.571429-8.777143 73.142857 13.165714 82.651428 49.737143l86.308572 345.234286c8.777143 36.571429-13.165714 73.142857-49.737143 82.651428z" fill="#63e12b" p-id="9703" data-spm-anchor-id="a313x.7781069.0.i21" class="selected"></path><path d="M310.125714 833.097143c-50.468571 12.434286-98.742857-16.822857-109.714285-62.171429-11.702857-45.348571 17.554286-93.622857 68.022857-106.788571 50.468571-12.434286 98.742857 16.822857 109.714285 62.171428 10.971429 46.08-18.285714 94.354286-68.022857 106.788572z m-9.508571-38.765714c24.868571-6.582857 39.497143-30.72 32.914286-56.32-6.582857-26.331429-30.72-40.96-55.588572-34.377143-24.868571 6.582857-39.497143 30.72-32.914286 56.32 5.851429 26.331429 29.988571 40.96 55.588572 34.377143zM457.142857 622.445714c35.108571-8.777143 65.097143 8.777143 73.142857 40.96 8.045714 32.182857-10.24 61.44-45.348571 70.948572l-28.525714 7.314285 11.702857 47.542858-43.154286 10.971428-39.497143-159.451428 71.68-18.285715z m-19.017143 46.08l8.777143 34.377143 26.331429-6.582857c10.24-2.925714 16.091429-12.434286 13.897143-21.942857-2.194286-8.777143-12.434286-15.36-22.674286-12.434286l-26.331429 6.582857zM699.977143 692.662857l8.777143 36.571429-125.074286 31.451428-39.497143-159.451428L667.062857 570.514286l8.777143 36.571428-79.725714 19.748572 6.582857 24.868571 61.44-15.36 8.777143 34.377143-61.44 15.36 6.582857 27.062857zM845.531429 525.165714l39.497142 159.451429-37.302857 9.508571-90.697143-71.68 21.942858 88.502857-43.154286 10.971429-39.497143-159.451429 37.302857-9.508571 90.697143 71.68-21.942857-88.502857z" fill="#515151" p-id="9704" data-spm-anchor-id="a313x.7781069.0.i24" class=""></path></svg>