<svg t="1642579505306" class="icon" viewBox="0 0 1024 1024" version="1.1" xmlns="http://www.w3.org/2000/svg" p-id="4431" width="200" height="200"><path d="M780.4928 735.8464c-126.7712-14.1312-178.4832-68.608-216.2688-108.4416l-0.4096-0.4096c85.8112-41.472 172.2368-176.2304 172.2368-324.608 0-159.232-92.16-270.4384-224.0512-270.4384S287.9488 143.1552 287.9488 302.3872c0 148.3776 86.4256 283.136 172.2368 324.608l-0.4096 0.4096c-37.7856 39.8336-89.4976 94.3104-216.2688 108.4416-93.9008 10.4448-111.5136 133.7344-114.7904 177.152 31.1296 21.1968 138.752 78.9504 383.2832 78.9504 244.1216 0 351.6416-57.6512 383.2832-79.0528-3.2768-43.4176-20.8896-166.6048-114.7904-177.0496z" fill="#F0EEE2" p-id="4432"></path><path d="M892.8256 822.272c-55.1936 30.72-170.0864 73.728-381.2352 73.728-210.432 0-325.12-42.8032-380.6208-73.4208-14.4384 40.8576-17.92 81.92-18.7392 98.0992 23.04 17.8176 130.4576 87.3472 399.7696 87.3472 160.768 0 262.3488-24.8832 319.2832-45.8752 45.7728-16.7936 70.656-33.792 80.4864-41.3696-0.8192-16.2816-4.4032-57.4464-18.944-98.5088z" fill="#BBAA9C" p-id="4433"></path><path d="M671.9488 799.9488c0-8.8064-7.168-15.9744-15.9744-15.9744h-128c-8.8064 0-15.9744 7.168-15.9744 15.9744s7.168 15.9744 15.9744 15.9744h128c8.9088 0.1024 15.9744-7.0656 15.9744-15.9744 0 0.1024 0 0.1024 0 0zM432.0256 896H384c-8.8064 0.2048-15.7696 7.5776-15.5648 16.384 0.2048 8.4992 7.0656 15.36 15.5648 15.5648h48.0256c8.8064-0.2048 15.7696-7.5776 15.5648-16.384-0.2048-8.4992-7.0656-15.36-15.5648-15.5648z m223.9488-432.0256h-79.9744c-8.8064-0.2048-16.1792 6.7584-16.384 15.5648s6.7584 16.1792 15.5648 16.384H655.9744c8.8064-0.2048 15.7696-7.5776 15.5648-16.384-0.2048-8.4992-7.0656-15.36-15.5648-15.5648zM560.0256 128h64c8.8064-0.2048 15.7696-7.5776 15.5648-16.384-0.2048-8.4992-7.0656-15.36-15.5648-15.5648h-64c-8.8064 0.2048-15.7696 7.5776-15.5648 16.384 0.2048 8.4992 6.9632 15.36 15.5648 15.5648z m-144.0768 96.0512H512c8.8064 0 15.9744-7.168 15.9744-15.9744s-7.168-15.9744-15.9744-15.9744h-96.0512c-8.8064 0-15.9744 7.168-15.9744 15.9744s7.168 15.9744 15.9744 15.9744z m192.1024 79.9744c0 8.8064 7.168 15.9744 15.9744 15.9744h31.9488c8.8064 0 15.9744-7.168 15.9744-15.9744s-7.168-15.9744-15.9744-15.9744h-31.9488c-8.9088-0.1024-15.9744 7.0656-15.9744 15.9744zM448 719.9744H335.9744c-8.8064 0-15.9744 7.168-15.9744 15.9744s7.168 15.9744 15.9744 15.9744h112.0256c8.8064 0 15.9744-7.168 15.9744-15.9744s-7.168-15.9744-15.9744-15.9744z m351.9488 207.9744h-128c-8.8064 0-15.9744 7.168-15.9744 15.9744s7.168 15.9744 15.9744 15.9744h128c8.8064 0 15.9744-7.168 15.9744-15.9744s-7.0656-15.9744-15.9744-15.9744zM463.9744 399.9744c-8.8064 0-15.9744 7.168-15.9744 15.9744s7.168 15.9744 15.9744 15.9744 15.9744-7.168 15.9744-15.9744c0.1024-8.8064-7.0656-15.9744-15.9744-15.9744z" fill="#D8D5BA" p-id="4434"></path><path d="M783.9744 704c-87.9616-9.728-135.5776-40.448-168.96-70.8608C700.0064 569.344 768 436.224 768 302.3872 768 116.8384 653.4144 0 512 0S256 116.8384 256 302.3872C256 436.224 323.9936 569.344 408.8832 633.0368c-33.3824 30.5152-80.9984 61.1328-168.96 70.8608C96.0512 719.9744 96.0512 927.9488 96.0512 927.9488S192 1024 512 1024s415.9488-96.0512 415.9488-96.0512 0-207.9744-143.9744-223.9488zM389.4272 520.192c-44.1344-63.1808-69.4272-142.5408-69.4272-217.7024 0-140.3904 78.9504-238.4896 192-238.4896s192 97.9968 192 238.3872c0 75.1616-25.2928 154.5216-69.4272 217.7024-37.888 54.1696-84.7872 87.8592-122.5728 87.8592s-84.6848-33.5872-122.5728-87.7568z m-142.336 247.5008c121.9584-13.5168 182.0672-63.1808 221.184-102.8096 28.3648 9.6256 59.1872 9.6256 87.552 0 39.1168 39.6288 99.1232 89.2928 221.184 102.8096 11.1616 1.2288 37.888 4.1984 59.904 45.2608-61.1328 24.9856-163.9424 51.3024-325.3248 51.3024-160.8704 0-263.4752-26.2144-324.7104-51.0976 12.9024-23.6544 31.9488-42.3936 60.2112-45.4656zM512 960c-204.3904 0-307.9168-41.1648-349.3888-63.8976 2.2528-18.0224 6.0416-35.7376 11.4688-52.9408 64.9216 26.3168 171.52 52.9408 337.408 52.9408 166.4 0 273.1008-26.8288 337.92-53.1456 5.5296 17.3056 9.5232 35.1232 11.8784 53.248-41.472 22.6304-144.896 63.7952-349.2864 63.7952z" fill="#5F4E56" p-id="4435"></path></svg>